<?xml version="1.0" encoding="UTF-8"?>
<svg id="Layer_1" data-name="Layer 1" xmlns="http://www.w3.org/2000/svg" viewBox="0 0 1032.06 1032.11">
  <defs>
    <style>
      .cls-1 {
        fill: #90ee90;
      }

      .cls-2 {
        fill: #fff;
      }
    </style>
  </defs>
  <path class="cls-2" d="m478.35,1032.11c-69.38-.02-136.27-14.53-198.8-43.14-104.6-47.86-188.56-131.82-236.42-236.41C14.53,690.02.02,623.13,0,553.76,0,289.99,214.59,75.4,478.35,75.4c66.21.02,130.15,13.23,190.2,39.3,4.73,2.05,6.89,7.57,4.75,12.26l-12.21,26.69c-2.07,4.52-7.37,6.59-11.93,4.61-53.92-23.34-111.34-35.17-170.81-35.18-237.46,0-430.66,193.2-430.66,430.67.01,62.48,13.07,122.69,38.81,178.96,43.09,94.19,118.7,169.8,212.89,212.89,56.27,25.74,116.48,38.8,178.97,38.81,237.46,0,430.66-193.2,430.66-430.67-.01-59.47-11.85-116.89-35.18-170.81-1.97-4.56.1-9.86,4.61-11.93l26.69-12.21c4.69-2.15,10.2.01,12.26,4.75,26.07,60.05,39.29,123.99,39.3,190.19,0,263.77-214.59,478.36-478.35,478.36Z"/>
  <path class="cls-2" d="m478.35,908.15c-51.57-.02-101.27-10.85-147.74-32.2-77.11-35.39-139.07-97.35-174.46-174.46-21.35-46.46-32.18-96.17-32.2-147.73,0-195.42,158.98-354.41,354.4-354.41,48.38.02,95.12,9.55,139.09,28.36,4.76,2.04,6.93,7.59,4.77,12.29l-12.25,26.67c-2.06,4.49-7.31,6.55-11.86,4.62-37.85-16.1-78.1-24.26-119.76-24.27-169.12,0-306.71,137.59-306.71,306.72.02,44.64,9.38,87.65,27.85,127.84,30.64,66.76,84.27,120.39,151.02,151.03,40.2,18.47,83.21,27.84,127.85,27.85,169.12,0,306.71-137.59,306.71-306.72-.01-41.65-8.17-81.9-24.27-119.75-1.93-4.54.14-9.8,4.62-11.86l26.67-12.25c4.71-2.16,10.26,0,12.29,4.77,18.81,43.97,28.35,90.71,28.36,139.08,0,195.42-158.98,354.41-354.4,354.41Z"/>
  <g>
    <circle class="cls-1" cx="478.35" cy="553.75" r="105.81" transform="translate(-251.46 500.43) rotate(-45)"/>
    <path class="cls-1" d="m1030.63,114.08c-3.36-10.21-12.05-17.53-22.68-19.1l-61.71-9.13-9.12-61.74c-1.57-10.61-8.87-19.3-19.06-22.67-10.19-3.37-21.23-.75-28.81,6.84l-165.4,165.4c-6.29,6.28-9.27,15.28-7.97,24.09l10.97,74.2-.22-.22-209.07,209.07,33.72,33.72,209.07-209.07-.21-.21,73.1,10.8c1.36.2,2.72.3,4.08.3,7.39,0,14.62-2.92,19.93-8.19l166.45-165.26c7.63-7.57,10.28-18.62,6.93-28.84Zm-200.06,153.38l-57.44-8.49-8.65-58.49,131.12-131.12,5.58,37.74c1.83,12.4,11.39,21.96,23.79,23.79l37.56,5.55-131.95,131.01Z"/>
  </g>
  <path class="cls-2" d="m648.33,486.75c9.83,24.82,14.42,52.26,12.25,80.99-6.93,91.8-82.37,164.73-174.36,168.61-105.47,4.45-192.5-81.04-190.6-185.97,1.72-94.47,76.4-172.88,170.69-178.99,29-1.88,56.68,3.09,81.6,13.4,4.61,1.91,9.89-.12,11.93-4.67,3.83-8.54,7.85-17.52,12.01-26.81,2.1-4.68-.03-10.22-4.76-12.2-29.27-12.26-61.59-18.67-95.47-17.69-121.19,3.48-219.76,101.73-223.59,222.91-4.21,133.01,104.96,242.09,237.99,237.75,120.53-3.93,218.42-101.6,222.63-222.12,1.17-33.44-4.84-65.38-16.59-94.41-1.96-4.85-7.6-7.05-12.35-4.87l-26.72,12.31c-4.45,2.05-6.46,7.21-4.65,11.76Z"/>
</svg>