<?xml version="1.0" encoding="UTF-8"?>
<svg id="Layer_1" data-name="Layer 1" xmlns="http://www.w3.org/2000/svg" viewBox="0 0 1036.94 1060.36">
  <defs>
    <style>
      .cls-1 {
        fill: #90ee90;
      }

      .cls-2 {
        fill: #fff;
      }
    </style>
  </defs>
  <circle class="cls-1" cx="518.47" cy="535.84" r="123.07" transform="translate(-227.04 523.56) rotate(-45)"/>
  <g>
    <path class="cls-2" d="m879.39,369.46c-62.27-33.83-191.96-90.58-360.92-90.58s-298.65,56.75-360.91,90.58C81.39,410.85,0,476.28,0,535.84s81.39,124.99,157.56,166.38c62.27,33.83,191.95,90.58,360.91,90.58s298.65-56.75,360.92-90.58c76.17-41.38,157.56-106.82,157.56-166.38s-81.39-124.99-157.56-166.38ZM181.25,658.6c-90.78-49.32-131.62-101.48-131.62-122.76s40.83-73.44,131.62-122.76c38.21-20.76,103.65-50.77,188.89-68.9-57.23,44.39-94.13,113.79-94.13,191.66s36.9,147.27,94.13,191.66c-85.24-18.13-150.68-48.13-188.89-68.9Zm337.22,70.06c-106.32,0-192.82-86.5-192.82-192.82s86.5-192.82,192.82-192.82,192.82,86.5,192.82,192.82-86.5,192.82-192.82,192.82Zm337.22-70.06c-38.22,20.76-103.65,50.77-188.89,68.9,57.23-44.39,94.13-113.79,94.13-191.66s-36.9-147.27-94.13-191.66c85.24,18.13,150.68,48.13,188.89,68.9,90.78,49.32,131.62,101.48,131.62,122.76s-40.84,73.44-131.62,122.76Z"/>
    <rect class="cls-2" x="493.65" width="49.64" height="183.4" rx="8.2" ry="8.2"/>
    <path class="cls-2" d="m163.82,276.11c2.94,3.45,8.12,3.85,11.56.91l25.27-21.58c3.44-2.94,3.85-8.12.91-11.56l-108.45-126.98c-2.94-3.45-8.12-3.85-11.56-.91l-25.27,21.58c-3.44,2.94-3.85,8.12-.91,11.56l108.45,126.98Z"/>
    <path class="cls-2" d="m861.56,277.02c3.44,2.94,8.62,2.53,11.56-.91l108.45-126.98c2.94-3.44,2.53-8.62-.91-11.56l-25.27-21.58c-3.44-2.94-8.62-2.53-11.56.91l-108.45,126.98c-2.94,3.44-2.53,8.62.91,11.56l25.27,21.58Z"/>
    <path class="cls-2" d="m501.86,876.96h33.23c4.53,0,8.2,3.68,8.2,8.2v167c0,4.53-3.68,8.2-8.2,8.2h-33.23c-4.53,0-8.2-3.68-8.2-8.2v-167c0-4.53,3.68-8.2,8.2-8.2Z"/>
    <path class="cls-2" d="m873.12,784.25c-2.94-3.44-8.12-3.85-11.56-.91l-25.27,21.58c-3.44,2.94-3.85,8.12-.91,11.56l108.45,126.98c2.94,3.45,8.12,3.85,11.56.91l25.27-21.58c3.44-2.94,3.85-8.12.91-11.56l-108.45-126.98Z"/>
    <path class="cls-2" d="m175.39,783.34c-3.44-2.94-8.62-2.53-11.56.91l-108.45,126.98c-2.94,3.45-2.53,8.62.91,11.56l25.27,21.58c3.44,2.94,8.62,2.53,11.56-.91l108.45-126.98c2.94-3.44,2.53-8.62-.91-11.56l-25.27-21.58Z"/>
  </g>
</svg>